<svg width="15" height="18" fill="none" xmlns="http://www.w3.org/2000/svg"><path d="M5.125 13.75v-1a1 1 0 0 0-1 1h1Zm4.75 0h1a1 1 0 0 0-1-1v1ZM4.333 3.25a1 1 0 0 0 0 2v-2Zm.008 2a1 1 0 1 0 0-2v2Zm6.326-2a1 1 0 0 0 0 2v-2Zm.008 2a1 1 0 0 0 0-2v2Zm-3.175-2a1 1 0 0 0 0 2v-2Zm.008 2a1 1 0 1 0 0-2v2ZM7.5 6.417a1 1 0 1 0 0 2v-2Zm.008 2a1 1 0 0 0 0-2v2ZM7.5 9.584a1 1 0 1 0 0 2v-2Zm.008 2a1 1 0 1 0 0-2v2Zm3.159-5.167a1 1 0 0 0 0 2v-2Zm.008 2a1 1 0 0 0 0-2v2Zm-.008 1.167a1 1 0 0 0 0 2v-2Zm.008 2a1 1 0 0 0 0-2v2ZM4.333 6.417a1 1 0 1 0 0 2v-2Zm.008 2a1 1 0 1 0 0-2v2Zm-.008 1.167a1 1 0 1 0 0 2v-2Zm.008 2a1 1 0 1 0 0-2v2Zm-1.59-9.5h9.5v-2h-9.5v2Zm9.5 0c.321 0 .582.26.582.583h2A2.583 2.583 0 0 0 12.25.083v2Zm.582.583v12.666h2V2.668h-2Zm0 12.666a.583.583 0 0 1-.583.584v2a2.583 2.583 0 0 0 2.583-2.584h-2Zm-.583.584h-9.5v2h9.5v-2Zm-9.5 0a.583.583 0 0 1-.583-.583h-2a2.583 2.583 0 0 0 2.583 2.583v-2Zm-.583-.583V2.667h-2v12.667h2Zm0-12.667c0-.322.26-.583.583-.583v-2A2.583 2.583 0 0 0 .167 2.666h2Zm3.958 14.25V13.75h-2v3.167h2Zm-1-2.167h4.75v-2h-4.75v2Zm3.75-1v3.167h2V13.75h-2Zm-4.542-8.5h.008v-2h-.008v2Zm6.334 0h.008v-2h-.008v2Zm-3.167 0h.008v-2H7.5v2Zm0 3.167h.008v-2H7.5v2Zm0 3.167h.008v-2H7.5v2Zm3.167-3.167h.008v-2h-.008v2Zm0 3.167h.008v-2h-.008v2ZM4.333 8.417h.008v-2h-.008v2Zm0 3.167h.008v-2h-.008v2Z" fill="#fff"/></svg>